<svg width="32" height="32" viewBox="0 0 32 32" xmlns="http://www.w3.org/2000/svg"><title>4 copy</title><desc>Created with Sketch.</desc><defs><linearGradient x1="50%" y1="0%" x2="50%" y2="100%" id="a"><stop stop-color="#FF4136" offset="0%"/><stop stop-color="#FF851B" offset="100%"/></linearGradient></defs><path d="M11.634 20.68h6.789v4.526h-6.789c-3.022 0-5.863-1.177-8.001-3.314-2.137-2.137-3.314-4.978-3.314-8v-13.577h4.526v13.577c0 1.813.706 3.518 1.988 4.8s2.987 1.988 4.8 1.988zm0-6.788h6.789v4.526h-6.789c-1.209 0-2.345-.471-3.2-1.326-.855-.855-1.326-1.991-1.326-3.2v-13.577h4.526v13.577zm2.263-13.577h4.526v11.314h-4.526v-11.314zm6.789 31.68h4.526v-31.68h-4.526v31.68zm6.789 0h4.526v-31.68h-4.526v31.68z" fill="url(#a)"/></svg>